<svg width="103" height="25" viewBox="0 0 103 25" fill="none" xmlns="http://www.w3.org/2000/svg">
<path d="M93.7844 22.3506C88.756 22.3506 84.7965 18.5725 84.7965 13.3265C84.7965 8.08053 88.756 4.35059 93.7844 4.35059C98.837 4.35059 102.797 8.08053 102.797 13.3265C102.797 18.5725 98.837 22.3506 93.7844 22.3506ZM93.7844 18.2837C96.5293 18.2837 98.0597 16.0458 98.0597 13.3265C98.0597 10.6073 96.5293 8.41743 93.7844 8.41743C91.0394 8.41743 89.5091 10.6073 89.5091 13.3265C89.5091 16.0458 91.0394 18.2837 93.7844 18.2837Z" fill="#26282C"/>
<path fill-rule="evenodd" clip-rule="evenodd" d="M66.7965 22.1674C66.7965 22.1593 66.7965 22.1512 66.7965 22.1431C66.7965 16.8315 70.756 13.0549 75.7844 13.0549C80.837 13.0549 84.7965 16.8315 84.7965 22.1431C84.7965 22.1512 84.7965 22.1593 84.7965 22.1674H80.0596C80.0597 22.1593 80.0597 22.1512 80.0597 22.1431C80.0597 19.3898 78.5293 17.1726 75.7844 17.1726C73.0394 17.1726 71.5091 19.3898 71.5091 22.1431C71.5091 22.1512 71.5091 22.1593 71.5091 22.1674H66.7965Z" fill="#F87830"/>
<path fill-rule="evenodd" clip-rule="evenodd" d="M84.7965 4.16728C84.7965 4.1754 84.7965 4.18352 84.7965 4.19165C84.7965 9.50321 80.837 13.2798 75.8087 13.2798C70.756 13.2798 66.7965 9.50321 66.7965 4.19165C66.7965 4.18352 66.7965 4.1754 66.7965 4.16728H71.5334C71.5334 4.1754 71.5334 4.18352 71.5334 4.19165C71.5334 6.94489 73.0637 9.1621 75.8087 9.1621C78.5536 9.1621 80.084 6.94489 80.084 4.19165C80.084 4.18352 80.0839 4.1754 80.0839 4.16728H84.7965Z" fill="#F87830"/>
<path d="M57.3603 22.5264C52.1853 22.5264 48.1103 18.6014 48.1103 13.1514C48.1103 7.70137 52.1853 3.82637 57.3603 3.82637C62.5603 3.82637 66.6353 7.70137 66.6353 13.1514C66.6353 18.6014 62.5603 22.5264 57.3603 22.5264ZM57.3603 18.3014C60.1853 18.3014 61.7603 15.9764 61.7603 13.1514C61.7603 10.3264 60.1853 8.05137 57.3603 8.05137C54.5353 8.05137 52.9603 10.3264 52.9603 13.1514C52.9603 15.9764 54.5353 18.3014 57.3603 18.3014Z" fill="#26282C"/>
<path d="M42.8062 22.1248H38.0812V8.44975H32.5812V4.17475H48.3062V8.44975H42.8062V22.1248Z" fill="#26282C"/>
<path opacity="0.4" fill-rule="evenodd" clip-rule="evenodd" d="M12.8623 0.167236C9.68595 0.168021 6.63999 1.43036 4.39427 3.67663C2.14855 5.92291 0.886963 8.96917 0.886963 12.1455C0.886963 15.3218 2.14855 18.3681 4.39427 20.6144C6.63999 22.8606 9.68595 24.123 12.8623 24.1238V0.167236Z" fill="#F87830"/>
<path fill-rule="evenodd" clip-rule="evenodd" d="M24.9459 24.1237H12.8622C6.24499 24.0949 0.883986 18.7778 0.883986 12.1454L0.88208 12.145H12.8623L12.8622 12.1454L12.8823 12.145H13.4882C16.5172 12.2228 19.3994 13.4666 21.5339 15.6171C23.6684 17.7676 24.8907 20.6589 24.9459 23.6884V24.1237Z" fill="#F87830"/>
<path opacity="0.51" fill-rule="evenodd" clip-rule="evenodd" d="M12.8625 12.145L0.884187 12.1454C0.878503 14.6206 1.64492 17.036 3.07669 19.0551C3.08708 19.0697 3.09755 19.0844 3.10793 19.099C4.21878 20.6502 5.68271 21.9148 7.37881 22.7885C9.07492 23.6622 10.9545 24.1199 12.8624 24.1237L12.8625 12.145Z" fill="#FFF9ED"/>
<circle cx="19.8479" cy="6.15647" r="4.99094" fill="#F87830"/>
</svg>
